<?xml version="1.0" encoding="utf-8"?>
<!-- Generator: Adobe Illustrator 19.2.0, SVG Export Plug-In . SVG Version: 6.00 Build 0)  -->
<svg version="1.1" id="girl" xmlns="http://www.w3.org/2000/svg" xmlns:xlink="http://www.w3.org/1999/xlink" x="0px" y="0px"
	 viewBox="0 0 121.6 148.8" style="enable-background:new 0 0 121.6 148.8;" xml:space="preserve">
<style type="text/css">
	.st0{fill:#CCCCCC;}
	.st1{fill:#333333;}
	.st2{fill:#FFFFFF;}
	.st3{fill:#FCE2D2;}
</style>
<path class="st0" d="M56.2,103.9c-14.3-9-52-16.9-51.3-4.4c1,18.3,58.5,29.7,73.7,21.7C90.4,115,64.9,109.4,56.2,103.9z"/>
<path class="st1" d="M43.8,57.7c0,0-8.5-2.2-21.4,3.3c-8.9,3.8-14.9,9.2-19.8,13.5c-1.1,1-4.4,2.7-1.3-0.2
	c3.6-3.3,9.4-7.5,13.1-10.2c2.7-1.9,9.3-5.1,12.7-6C34.3,56.3,45.2,55.1,43.8,57.7z"/>
<path class="st2" d="M103.8,22.9C97.7,13.7,87.5,4.8,76.7,1c-6.9-2.4-15.9,0.2-15.9,0.2l6.8,45.9l-13.1-2.5c0,0-28.8,14.9-47.4,46.7
	c-1.3,2.2-1.9,4.3-2,6.2c3.2-9.6,37.6-2.1,51.1,6.4c7.5,4.7,27.3,9.5,25.3,14.7c8.1-13.2-8.9-62.5-11.5-70.1
	c2.1-0.1,5.7-0.4,11.6-1.4c4-0.6,12.2-2.5,17.8-1.6c9.5,1.5,11.9,6.2,15.6,3C116.6,47.2,111,33.7,103.8,22.9z"/>
<ellipse transform="matrix(0.3947 -0.9188 0.9188 0.3947 17.8553 75.777)" class="st3" cx="66.4" cy="24.3" rx="23.6" ry="24.5"/>
<path class="st1" d="M38.8,108.4c0,0-11.5,23.9-11.5,37.9c-3.7,0.3-7-1.3-7-1.3s1.9-3.9,5.2-1.4C24.8,139.9,36.8,106.4,38.8,108.4z"
	/>
<path class="st1" d="M54.1,109.4c0,0-8.1,25.3-6.2,39.2c-3.6,0.8-7.2-0.3-7.2-0.3s1.3-4.1,5-2.1C44.5,142.4,51.8,107.6,54.1,109.4z"
	/>
<path class="st1" d="M69.3,61.2c0,0,9.7,2.3,26.2-6.8s23.3-23.6,23.8-28.7s4.1-9,1.1,1c-2.1,7-8.2,15.7-12.4,20
	c-3,3-13.2,9.9-17.3,11.8C81.8,62.6,68.1,64.8,69.3,61.2z"/>
</svg>
