<?xml version="1.0" encoding="utf-8"?>
<!-- Generator: Adobe Illustrator 19.2.0, SVG Export Plug-In . SVG Version: 6.00 Build 0)  -->
<svg version="1.1" id="umbrella" xmlns="http://www.w3.org/2000/svg" xmlns:xlink="http://www.w3.org/1999/xlink" x="0px" y="0px"
	 viewBox="0 0 170 244" style="enable-background:new 0 0 170 244;" xml:space="preserve">
<style type="text/css">
	.st0{fill:#1A1A1A;}
	.st1{fill:#FF4856;}
</style>
<path class="st0" d="M100.8,42.4c0.1-0.6-0.4-1.1-0.9-1.1c-0.6-0.1-1.1,0.4-1.1,0.9l-6.7,79.1c0,0.1-0.1,0.2-0.1,0.3
	c-0.2,2.4-1.3,4.5-3.1,6c-1.8,1.5-4.1,2.2-6.4,2c-2.4-0.2-4.5-1.3-6-3.1c-1.5-1.8-2.2-4.1-2-6.4c0.1-0.5-0.4-1-0.9-1.1
	c-0.5-0.1-1,0.4-1.1,0.9c-0.3,2.9,0.6,5.7,2.5,7.9c1.8,2.2,4.5,3.5,7.3,3.8c0.3,0,0.7,0,1,0c2.5,0,4.9-0.9,6.9-2.5
	c1.9-1.6,3.2-3.8,3.6-6.2c0.1-0.1,0.1-0.3,0.2-0.4L100.8,42.4z"/>
<path class="st0" d="M101.9,5.5c0,0,0.9-5.5,1.5-5.5l0,0c0.5,0,0.5,5.6,0.5,5.6L101.9,5.5z"/>
<path class="st1" d="M47.8,62.1c9.2,0.8,16.9,5.1,20.9,9.5c5.3-5.4,16.6-9.5,29.2-8.4s23.1,7,27.4,13.2c4.7-3.6,13-6.6,22.2-5.8
	c10.6,0.9,19.2,6.2,22.4,11.4c1-39.4-28.1-73.1-67-76.4s-73.3,25-79.1,64C27.9,64.9,37.3,61.2,47.8,62.1z"/>
</svg>
